<?xml version="1.0" encoding="UTF-8" standalone="no"?>
<svg
   xmlns:dc="http://purl.org/dc/elements/1.1/"
   xmlns:cc="http://creativecommons.org/ns#"
   xmlns:rdf="http://www.w3.org/1999/02/22-rdf-syntax-ns#"
   xmlns:svg="http://www.w3.org/2000/svg"
   xmlns="http://www.w3.org/2000/svg"
   xmlns:sodipodi="http://sodipodi.sourceforge.net/DTD/sodipodi-0.dtd"
   xmlns:inkscape="http://www.inkscape.org/namespaces/inkscape"
   version="1.1"
   id="svg2"
   width="1191.5096"
   height="1190.855"
   viewBox="0 0 1191.5096 1190.855"
   sodipodi:docname="anaconda-navigator.svg"
   inkscape:version="1.0.1 (3bc2e813f5, 2020-09-07, custom)">
  <sodipodi:namedview
     pagecolor="#ffffff"
     bordercolor="#666666"
     borderopacity="1"
     objecttolerance="10"
     gridtolerance="10"
     guidetolerance="10"
     inkscape:pageopacity="0"
     inkscape:pageshadow="2"
     inkscape:window-width="1862"
     inkscape:window-height="1010"
     id="namedview9"
     showgrid="false"
     fit-margin-top="50"
     fit-margin-left="50"
     fit-margin-right="50"
     fit-margin-bottom="50"
     inkscape:zoom="0.58235308"
     inkscape:cx="593.28699"
     inkscape:cy="639.20703"
     inkscape:window-x="58"
     inkscape:window-y="32"
     inkscape:window-maximized="1"
     inkscape:current-layer="svg2"
     inkscape:document-rotation="0" />
  <metadata
     id="metadata8">
    <rdf:RDF>
      <cc:Work
         rdf:about="">
        <dc:format>image/svg+xml</dc:format>
        <dc:type
           rdf:resource="http://purl.org/dc/dcmitype/StillImage" />
        <dc:title></dc:title>
      </cc:Work>
    </rdf:RDF>
  </metadata>
  <defs
     id="defs6" />
  <g
     id="g10"
     transform="translate(50.063705,49.085379)">
    <g
       id="g14">
      <path
         style="display:inline;fill:#5fbb4a;stroke-width:1.06667"
         d="M 526.93335,1091.6223 C 425.27699,1087.3092 331.1344,1057.67 248.96402,1004.1086 l -8.64022,-5.63193 -2.79581,-20.57166 c -4.79292,-35.26628 -6.98904,-59.54014 -8.76122,-96.83832 l -0.63352,-13.33333 39.80005,-0.006 c 30.01581,-0.005 45.20777,-0.49108 61.79743,-1.97757 l 21.99738,-1.97105 11.06929,6.37472 c 42.13736,24.26657 92.32284,40.36224 144.40262,46.31334 17.79247,2.03313 66.13189,1.70883 83.2,-0.55816 42.63128,-5.6623 79.98764,-16.66452 116.48123,-34.30613 40.32133,-19.492 71.40981,-41.57589 102.75779,-72.99461 53.98191,-54.10386 89.05664,-121.13066 102.74389,-196.34081 4.48647,-24.6527 5.45021,-36.34683 5.45021,-66.13334 0,-35.62369 -2.87837,-60.00137 -10.76837,-91.2 -22.23135,-87.90723 -77.27212,-166.3722 -152.14656,-216.89696 -50.87766,-34.33188 -105.15434,-54.28572 -169.31819,-62.24676 -12.27423,-1.5229 -65.74935,-1.93561 -73.3993,-0.56647 -3.82061,0.68379 -4.45268,0.56636 -3.73333,-0.69357 2.824,-4.94617 42.00662,-47.36536 59.50243,-64.41746 l 20.67967,-20.155202 -9.25807,-8.517606 C 546.42695,51.111363 526.0378,34.158754 497.27663,13.164796 490.45002,8.1817703 485.74522,4.0809468 486.55571,3.8201677 c 8.68064,-2.7930566 75.36597,-3.95072203 101.71097,-1.7657151 70.0742,5.8118264 132.97,22.7656454 194.41519,52.4054084 166.7814,80.451549 280.97523,238.544109 304.68063,421.806819 3.094,23.91856 4.0552,40.48112 4.0552,69.86667 0,29.38555 -0.9612,45.94811 -4.0552,69.86667 -12.7418,98.5047 -51.838,191.19398 -113.37949,268.80001 -94.56863,119.25437 -234.92304,194.04317 -385.18299,205.24737 -16.41937,1.2243 -49.98855,2.0789 -61.86667,1.5749 z M 190.93334,960.83803 c -14.92428,-12.77261 -51.40976,-49.66943 -63.06041,-63.77134 -16.04136,-19.41644 -36.825831,-47.66932 -35.813246,-48.6819 0.295522,-0.29553 7.190858,0.92005 15.322966,2.70127 20.12823,4.4088 48.89234,9.22222 67.55069,11.304 8.50667,0.94912 16.47542,1.93091 17.70834,2.18174 2.12986,0.43331 2.2782,1.32166 2.9739,17.80881 1.16918,27.70858 3.88769,61.30067 6.6398,82.04711 0.37737,2.84477 0.2643,5.15215 -0.25129,5.12751 -0.51558,-0.0246 -5.49742,-3.94738 -11.07075,-8.7172 z m 44,-126.42776 -6.66667,-0.3787 0.0155,-3.41578 c 0.0636,-14.02886 4.29496,-68.33985 5.98448,-76.81312 0.5729,-2.87319 0.83404,-2.65223 6.30303,5.33333 14.38294,21.00125 43.47187,53.30379 61.51899,68.31532 l 7.39208,6.14871 -8.8737,0.69413 c -9.11625,0.71311 -53.77442,0.79206 -65.6737,0.11611 z m -58.93333,-5.16774 c -30.7662,-3.9124 -53.61499,-8.15356 -83.821837,-15.55884 l -18.221828,-4.46712 5.012864,-15.54161 c 8.56272,-26.54737 19.567817,-54.41961 32.248611,-81.67494 3.54837,-7.62667 6.5319,-13.98259 6.63004,-14.12428 0.0981,-0.14167 12.86254,6.12192 28.36531,13.91912 15.50276,7.7972 34.42684,16.82164 42.0535,20.05433 l 13.86667,5.8776 -0.25878,4.20328 c -0.14233,2.31181 -0.96514,10.30549 -1.82846,17.76375 -1.54028,13.30647 -3.1207,33.49379 -4.62268,59.04768 l -0.75675,12.8748 z M 42.144567,756.20473 C 26.606871,719.46541 13.960395,675.40711 7.4434833,635.31169 6.2200131,627.78428 5.4576614,621.3868 5.7493685,621.09509 c 0.291707,-0.2917 4.0374339,2.32578 8.3238375,5.81663 13.193667,10.74493 35.794286,27.20761 53.126796,38.69845 9.093334,6.02856 16.956968,11.34014 17.474744,11.80351 0.522329,0.46745 -2.399085,7.87842 -6.56256,16.64775 -9.35658,19.70732 -15.320202,33.71185 -23.082513,54.20526 -3.333186,8.8 -6.434555,16.93212 -6.891931,18.07137 -0.651206,1.62206 -1.951235,-0.57605 -5.993175,-10.13333 z M 186.66667,689.7871 c -16.87391,-7.8742 -47.75345,-23.66687 -49.50149,-25.31643 -1.15367,-1.08869 13.23935,-25.50313 28.84868,-48.93518 6.34364,-9.5228 11.17441,-15.81896 11.45771,-14.93334 0.2694,0.84216 1.29341,6.3312 2.27558,12.19787 3.86526,23.0876 11.31743,48.87993 20.87999,72.26667 3.05172,7.46345 4.60861,12.51359 3.8488,12.48451 -0.70177,-0.0268 -8.71593,-3.52069 -17.80927,-7.7641 z M 85.679938,632.70258 C 76.268413,626.34232 66.700258,619.75616 64.417372,618.06664 53.477252,609.97012 35.683983,595.98191 25.333419,587.34071 14.078533,577.94454 13.90121,577.72688 15.728664,575.55058 26.564182,562.64668 64.284237,525.9609 83.280638,509.85086 l 12.347303,-10.47122 6.274439,8.71019 c 10.11837,14.04634 26.2014,34.39086 38.37175,48.53902 l 11.32217,13.16218 -4.99169,7.10449 c -14.24348,20.2722 -39.50498,60.08872 -41.61996,65.60029 -0.37376,0.97398 -1.02005,1.77088 -1.4362,1.77088 -0.41616,0 -8.456988,-5.20385 -17.868512,-11.56411 z M 162.13334,516.72762 c -6.16,-7.56389 -16.09885,-20.34693 -22.08632,-28.40676 l -10.88632,-14.65422 15.15299,-10.31968 c 11.48953,-7.82475 38.69704,-24.98079 45.65547,-28.78864 0.34969,-0.19136 -0.7541,4.55473 -2.4529,10.54688 -6.19821,21.86296 -9.86046,43.07487 -13.37496,77.46821 l -0.80796,7.90673 z M 0.46064059,525.18705 C 0.74903045,522.92085 1.2663248,515.30668 1.6101836,508.26668 3.278245,474.11559 13.912076,415.82262 23.78479,386.70899 l 2.517669,-7.42434 7.451975,15.42434 c 7.919564,16.39219 22.438873,43.11131 31.953403,58.80219 3.167358,5.22345 5.758832,9.86457 5.758832,10.3136 0,0.44904 -3.479118,3.67215 -7.731373,7.1625 -12.904649,10.5924 -27.099555,23.35444 -45.900482,41.26717 L -0.06370462,529.30741 Z M 96.436065,422.0763 C 84.58167,401.91155 65.41198,363.87282 56.820602,343.46668 53.239132,334.96001 50.149351,327.35966 49.95442,326.577 c -0.457741,-1.83786 10.615685,-5.98239 37.512249,-14.03997 33.170211,-9.93702 77.683261,-20.1597 78.938491,-18.12868 0.38674,0.62575 1.30107,5.79986 2.03186,11.49803 1.86504,14.54225 8.04838,46.99541 12.41273,65.14808 2.02598,8.42663 3.68042,15.86663 3.67655,16.53334 -0.004,0.66672 -4.20387,3.57534 -9.33333,6.46359 -14.77402,8.31884 -38.99617,23.47638 -54.7569,34.26534 l -14.49728,9.92405 z M 221.50114,336.28299 c -4.04261,-20.65317 -8.63457,-49.27061 -7.99645,-49.83437 0.68824,-0.60805 39.88446,-3.69399 55.29532,-4.35343 l 15.46667,-0.66184 -8.64096,8.88333 c -14.59698,15.00639 -29.7191,34.30409 -43.12516,55.03297 l -7.08148,10.94965 z M 79.057397,263.20001 c 5.110355,-9.68952 28.591963,-43.30634 40.792853,-58.4 9.10894,-11.26864 27.06921,-31.41139 34.44924,-38.63543 l 6.23385,-6.10208 0.051,35.43542 c 0.0281,19.48948 0.41447,38.88871 0.85874,43.1094 l 0.80776,7.67398 -4.05874,0.69546 c -12.38833,2.12277 -45.88343,9.67628 -61.339291,13.8327 -9.797633,2.6348 -18.094522,4.79055 -18.437529,4.79055 -0.343007,0 -0.05405,-1.08 0.642137,-2.4 z M 208.46175,236.6769 c -1.96225,-5.94308 -0.3384,-100.689 1.76023,-102.7032 0.44913,-0.43106 2.87231,-0.0824 26.04469,3.74654 21.54121,3.5595 74.73591,15.63708 77.11703,17.50902 0.17437,0.13708 -2.29335,8.88525 -5.48383,19.44037 -3.19047,10.55512 -8.06909,28.29814 -10.84139,39.42893 l -5.04053,20.23779 -21.47564,0.70447 c -11.81159,0.38746 -26.75564,1.17714 -33.20897,1.75486 -30.23748,2.7069 -27.9355,2.71637 -28.87159,-0.11878 z m 141.02132,-19.34356 c 3.82747,-14.54446 12.89717,-44.60244 13.70085,-45.40612 0.78297,-0.78298 28.67512,10.36993 50.09499,20.03089 l 7.41224,3.34312 -13.2789,5.32593 c -15.14796,6.0756 -39.05398,17.88235 -51.82704,25.59646 -4.77481,2.88368 -8.93796,5.24305 -9.25144,5.24305 -0.31348,0 1.1037,-6.36 3.1493,-14.13333 z m 86.78361,-71.24514 c -8.50667,-4.01346 -24.22667,-10.75736 -34.93333,-14.98644 -10.70667,-4.22907 -19.46667,-8.12152 -19.46667,-8.64987 0,-1.98357 9.10131,-22.34828 18.73407,-41.918554 8.43027,-17.127278 23.77201,-45.528299 25.55875,-47.31505 1.40463,-1.404626 51.4847,34.38046 71.44027,51.048182 l 9.10595,7.605662 -10.5558,11.39727 c -12.39849,13.38687 -30.509,34.25386 -37.90726,43.67688 -2.87321,3.65955 -5.51321,6.60544 -5.86667,6.54643 -0.35345,-0.059 -7.60264,-3.39104 -16.10931,-7.40451 z M 326.93334,105.47182 c -9.55345,-2.98989 -37.49439,-9.895179 -53.33333,-13.180741 -9.97334,-2.068826 -19.27734,-4.025862 -20.67555,-4.348971 -2.15886,-0.498884 -0.60687,-1.773278 10.29209,-8.451202 15.38732,-9.427988 40.62379,-22.709697 58.91679,-31.007332 12.58395,-5.708028 45.86667,-18.798813 45.86667,-18.040309 0,0.192935 -3.7044,7.462129 -8.232,16.153765 -4.5276,8.691634 -12.61567,25.618994 -17.97347,37.616353 -5.35782,11.997358 -10.17341,21.913847 -10.70134,22.036647 -0.52792,0.1228 -2.39986,-0.2274 -4.15986,-0.77821 z"
         id="path18" />
      <path
         style="display:inline;fill:#42af29;stroke-width:1.06667"
         d="m 522.66668,1091.0773 c -95.52158,-3.6652 -187.24569,-32.4696 -269.91181,-84.7613 l -12.31181,-7.78801 -1.90493,-13.66398 c -4.90796,-35.20464 -8.10814,-69.80002 -9.65477,-104.37238 l -0.57449,-12.84174 29.5789,0.43294 c 28.39921,0.41567 56.89421,-0.6836 81.84557,-3.15742 l 11.73334,-1.1633 9.6,5.56735 c 35.56304,20.62414 77.42073,35.86543 118.79268,43.25499 34.29916,6.12628 81.0533,7.44794 112.67399,3.18514 69.64552,-9.38897 132.15994,-35.85084 185.95382,-78.71285 16.41759,-13.08124 45.58518,-42.06409 57.68877,-57.32338 44.21249,-55.73977 70.1679,-117.06705 79.7489,-188.43022 2.59937,-19.36115 2.59589,-70.95604 -0.006,-90.50312 -9.42585,-70.81231 -35.55286,-132.50414 -79.73222,-188.26668 -11.53165,-14.55507 -42.06113,-45.04767 -56.9862,-56.91735 -13.1813,-10.48289 -36.65527,-26.31988 -51.40499,-34.68095 -39.12006,-22.17576 -87.03857,-37.92066 -135.26168,-44.44381 -15.12417,-2.04585 -59.49758,-3.16228 -74.28929,-1.86909 l -10.2893,0.89954 2.10789,-2.69417 c 8.23691,-10.52788 36.06894,-40.56995 55.52291,-59.93179 L 588.7998,89.791417 571.08063,73.650488 C 543.4887,48.516176 516.30307,26.266816 493.53016,10.181377 c -3.99842,-2.8242493 -6.87842,-5.4787004 -6.4,-5.8987801 3.33863,-2.9315025 72.8758,-4.42470609 100.60319,-2.1602986 132.11809,10.7896627 251.27108,65.6515567 344.01529,158.3957617 92.89526,92.89525 147.65706,211.82305 158.40626,344.01529 2.4897,30.61816 1.2827,78.27598 -2.7961,110.4 -20.7232,163.21186 -113.88609,307.98123 -254.29211,395.15415 -92.81108,57.6229 -198.78105,85.2726 -310.40001,80.9898 z M 190.49237,960.02976 c -23.10779,-19.83665 -50.55146,-48.06265 -68.47766,-70.42973 -14.07554,-17.5625 -30.676245,-40.49402 -29.886417,-41.28385 0.211772,-0.21177 4.88954,0.62723 10.395037,1.86443 23.5411,5.29021 47.28129,9.34223 74.48221,12.71279 9.64639,1.19531 17.68639,2.17329 17.86667,2.17329 0.18029,0 0.33196,4.44 0.33704,9.86667 0.0155,16.45748 4.56773,74.58988 7.10003,90.66667 0.34652,2.2 0.33788,4 -0.0192,4 -0.3571,0 -5.66606,-4.30662 -11.79771,-9.57027 z m 46.04097,-125.6226 c -4.54667,-0.19995 -8.2642,-0.70335 -8.26118,-1.11867 0.1121,-15.43186 4.7149,-74.03381 6.19628,-78.89002 0.64262,-2.10659 1.79888,-0.92741 9.41355,9.6 16.17532,22.36266 36.98007,45.31216 56.48111,62.30369 l 8.62975,7.51923 -13.42975,0.68499 c -13.15873,0.67117 -42.63847,0.62162 -59.02976,-0.0992 z m -53.6,-4.22039 c -21.533,-2.87301 -43.50371,-6.35702 -56.53334,-8.96478 -26.16917,-5.23754 -51.733331,-11.70835 -51.733331,-13.09478 0,-1.49124 10.026924,-31.40402 14.837598,-44.2642 5.411593,-14.4666 15.408803,-38.0584 22.282633,-52.58345 l 6.39844,-13.52046 29.174,14.67904 c 16.0457,8.07347 34.694,16.97334 41.44067,19.7775 6.74666,2.80415 12.60687,5.40699 13.02266,5.78408 0.4158,0.3771 0.3204,3.80143 -0.21201,7.60964 -2.15113,15.38679 -4.37479,40.17512 -5.57287,62.124 l -1.26637,23.2 -4.31904,-0.15982 c -2.37548,-0.0879 -5.75904,-0.35196 -7.51904,-0.58677 z M 41.110091,753.41272 C 29.070471,724.45393 17.830723,687.45731 11.191592,654.93335 8.2344376,640.44676 5.2182661,621.62619 5.7660253,621.07844 c 0.1880963,-0.1881 4.1276891,2.70963 8.7546517,6.43941 14.603356,11.77169 34.096947,25.96568 52.491339,38.22083 9.783392,6.51812 17.917188,11.96263 18.075101,12.09891 0.157913,0.13628 -2.637998,6.43857 -6.213136,14.0051 -9.227632,19.52965 -17.291095,38.50164 -24.978682,58.77071 l -6.654543,17.54534 z M 202.66667,696.75413 c -7.95259,-2.75274 -63.46923,-30.33854 -65.97445,-32.78221 -0.65361,-0.63754 16.75206,-29.20162 28.43343,-46.66148 6.19037,-9.2526 11.57575,-16.4526 11.96754,-16 0.39179,0.45261 1.53678,5.62291 2.54443,11.48958 3.86242,22.48753 10.43807,45.49959 20.05968,70.20061 2.92805,7.51699 5.15399,13.81128 4.94655,13.9873 -0.20745,0.17602 -1.09718,0.0708 -1.97718,-0.2338 z M 89.066669,634.87672 C 66.555966,619.81722 47.730016,605.71337 24.808188,586.73615 l -10.835655,-8.97095 7.475141,-8.29202 c 16.241786,-18.01667 70.886547,-69.2065 73.87742,-69.2065 0.294894,0 5.440946,6.6 11.435666,14.66667 11.71064,15.75816 24.50748,31.69019 36.94797,46.00008 l 7.76638,8.9334 -3.94069,5.4666 c -10.1204,14.03916 -22.3627,32.69463 -32.81156,49.99992 -6.28752,10.41334 -11.51233,18.90785 -11.61069,18.87671 -0.0984,-0.0312 -6.418834,-4.23115 -14.045501,-9.33334 z M 162.66667,517.1044 c -11.49324,-13.98812 -32.54997,-42.01712 -32.50711,-43.27082 0.0606,-1.77203 58.28367,-39.3459 59.33692,-38.29266 0.25028,0.25028 -0.99355,5.67597 -2.76406,12.05708 -5.96509,21.49879 -9.9243,44.67439 -12.59259,73.71194 l -0.80649,8.77658 z M 1.0666667,520.4206 c 0,-9.35159 2.5210312,-36.97755 4.8566928,-53.22059 3.4272841,-23.83458 9.3491385,-50.80688 16.6964885,-76.04758 l 3.351699,-11.51424 12.365027,24.31424 c 6.800765,13.37284 17.104928,32.40903 22.89814,42.30267 l 10.533114,17.98842 -3.617246,2.81136 c -12.689966,9.86279 -35.148683,30.11477 -55.083915,49.6715 L 1.0666667,528.49855 Z M 95.981668,420.94212 c -16.92821,-28.98016 -48.4041,-94.66677 -46.003576,-96.00425 1.601772,-0.89245 37.87024,-12.55459 48.155244,-15.48434 23.129514,-6.58858 67.020564,-16.6478 68.072644,-15.60131 0.18661,0.18562 1.24759,6.50482 2.35774,14.04265 2.93867,19.95353 6.90201,40.72906 11.81252,61.92027 2.37614,10.25417 4.16354,18.76174 3.97201,18.90571 -0.19154,0.14397 -4.90824,2.83431 -10.48158,5.97853 -18.10108,10.21182 -44.7166,27.02917 -60.31641,38.11166 l -7.51641,5.33985 z M 221.54918,335.73334 c -3.73443,-19.00162 -8.56729,-48.87841 -7.97782,-49.31897 0.53072,-0.39667 43.71376,-3.67502 56.67019,-4.30228 l 12.64155,-0.61202 -2.1522,2.98331 c -1.18372,1.64081 -4.15546,4.9033 -6.60387,7.24996 -10.31577,9.8871 -31.00155,36.43143 -42.60128,54.66667 -3.07881,4.84 -5.72223,8.8 -5.87429,8.8 -0.15205,0 -1.99808,-8.76 -4.10228,-19.46667 z M 78.408405,264.4347 c 0.48143,-0.82574 5.418551,-8.46136 10.971381,-16.96803 18.173154,-27.84039 38.126454,-53.1247 60.082954,-76.13556 l 11.0706,-11.60222 0.0463,37.73555 c 0.0255,20.75456 0.39345,40.1911 0.81774,43.1923 l 0.77142,5.45675 -15.21772,2.93529 c -12.19296,2.35185 -54.756225,12.62913 -66.851208,16.14182 -2.026926,0.58866 -2.382691,0.42967 -1.691468,-0.7559 z M 208.95306,238.8045 c -0.0625,-0.22248 -0.47731,-11.20449 -0.92183,-24.40449 -0.7511,-22.30358 0.15015,-64.55572 1.61736,-75.82539 l 0.63691,-4.89206 12.99058,1.97817 c 20.95234,3.19057 44.5143,7.98394 67.92393,13.81825 12.02667,2.99737 22.02438,5.5885 22.21714,5.75808 0.19276,0.16959 -1.32765,5.51062 -3.37867,11.86897 -4.50602,13.96908 -11.1214,38.0319 -15.08237,54.86077 l -2.91076,12.3668 -22.556,0.69811 c -20.37222,0.63053 -31.16503,1.33582 -53.22268,3.47803 -3.96,0.38458 -7.25112,0.51723 -7.31361,0.29476 z m 141.11023,-23.01386 c 3.67396,-14.01316 12.3586,-43.00718 13.1349,-43.85137 0.83561,-0.90869 56.00182,22.09438 56.00182,23.35151 0,0.38098 -4.2,2.2578 -9.33333,4.17071 -12.15178,4.52829 -40.77422,18.47494 -53.44951,26.04396 -5.49056,3.27867 -10.09105,5.96122 -10.22332,5.96122 -0.13227,0 1.60898,-7.05422 3.86944,-15.67603 z m 87.79996,-69.26314 c -8.21145,-3.79587 -24.0499,-10.56056 -35.19657,-15.03265 -11.14667,-4.47208 -20.47261,-8.29385 -20.7243,-8.49282 -1.45633,-1.15119 23.69173,-53.646303 36.81216,-76.843253 3.90686,-6.907326 7.24744,-12.720869 7.42352,-12.918982 0.45378,-0.510565 27.65667,17.720801 39.85586,26.711377 15.71021,11.578134 39.5661,30.910196 39.5661,32.063127 0,0.566879 -3.50315,4.695567 -7.78478,9.174861 -11.52429,12.05633 -33.20201,37.20166 -44.87966,52.05873 -0.0784,0.0996 -6.8609,-2.9245 -15.07233,-6.72039 z M 327.70623,105.55293 c -4.45467,-1.78199 -48.60064,-12.4968 -61.57289,-14.944552 -7.04,-1.328388 -13.18529,-2.74799 -13.65619,-3.154672 -2.05911,-1.778278 42.80961,-26.707676 69.75406,-38.755877 16.75369,-7.491405 43.68931,-18.066207 44.34563,-17.409887 0.22102,0.221018 -5.11317,11.631649 -11.85376,25.356956 -6.74057,13.725308 -14.58699,30.447177 -17.43649,37.159711 -2.84948,6.712531 -5.62466,12.320401 -6.16706,12.461921 -0.5424,0.14153 -2.07839,-0.17959 -3.4133,-0.7136 z"
         id="path16" />
    </g>
  </g>
</svg>
