<?xml version="1.0" encoding="UTF-8" standalone="no"?>
<svg
   xmlns:dc="http://purl.org/dc/elements/1.1/"
   xmlns:cc="http://creativecommons.org/ns#"
   xmlns:rdf="http://www.w3.org/1999/02/22-rdf-syntax-ns#"
   xmlns:svg="http://www.w3.org/2000/svg"
   xmlns="http://www.w3.org/2000/svg"
   xmlns:sodipodi="http://sodipodi.sourceforge.net/DTD/sodipodi-0.dtd"
   xmlns:inkscape="http://www.inkscape.org/namespaces/inkscape"
   version="1.1"
   id="svg2"
   width="314.14072"
   height="314.33264"
   viewBox="0 0 314.14071 314.33264"
   sodipodi:docname="notepadqq.svg"
   inkscape:version="1.0.1 (3bc2e813f5, 2020-09-07, custom)">
  <sodipodi:namedview
     pagecolor="#ffffff"
     bordercolor="#666666"
     borderopacity="1"
     objecttolerance="10"
     gridtolerance="10"
     guidetolerance="10"
     inkscape:pageopacity="0"
     inkscape:pageshadow="2"
     inkscape:window-width="1862"
     inkscape:window-height="1010"
     id="namedview11"
     showgrid="false"
     inkscape:zoom="1"
     inkscape:cx="167.27881"
     inkscape:cy="162.65411"
     inkscape:window-x="58"
     inkscape:window-y="32"
     inkscape:window-maximized="1"
     inkscape:current-layer="g18"
     inkscape:document-rotation="0"
     fit-margin-top="20"
     fit-margin-left="20"
     fit-margin-right="20"
     fit-margin-bottom="20" />
  <metadata
     id="metadata8">
    <rdf:RDF>
      <cc:Work
         rdf:about="">
        <dc:format>image/svg+xml</dc:format>
        <dc:type
           rdf:resource="http://purl.org/dc/dcmitype/StillImage" />
        <dc:title></dc:title>
      </cc:Work>
    </rdf:RDF>
  </metadata>
  <defs
     id="defs6">
    <clipPath
       clipPathUnits="userSpaceOnUse"
       id="clipPath13">
      <circle
         style="fill:#000000"
         id="circle15"
         cx="170.13405"
         cy="171.89627"
         r="137.20601" />
    </clipPath>
    <clipPath
       clipPathUnits="userSpaceOnUse"
       id="clipPath17">
      <circle
         style="fill:#000000"
         id="circle19"
         cx="170.13405"
         cy="171.89627"
         r="137.20601" />
    </clipPath>
    <clipPath
       clipPathUnits="userSpaceOnUse"
       id="clipPath21">
      <circle
         style="fill:#000000"
         id="circle23"
         cx="170.13405"
         cy="171.89627"
         r="137.20601" />
    </clipPath>
  </defs>
  <g
     id="g10"
     sodipodi:insensitive="true"
     transform="translate(-13.199349,-14.690262)">
    <g
       id="g18"
       sodipodi:insensitive="true">
      <rect
         style="fill:#ffffff"
         id="rect34"
         width="162.12297"
         height="182.90852"
         x="93.304459"
         y="80.668488"
         clip-path="url(#clipPath21)"
         sodipodi:insensitive="true" />
      <path
         style="display:inline;fill:#483737;stroke-width:1.33333"
         d="M 151.44634,307.95173 C 101.99106,300.15002 60.871517,267.67642 42.568582,221.967 29.942494,190.43486 30.120287,149.94871 43.023837,118.29877 52.4535,95.169607 71.812604,71.042335 91.870218,57.421469 103.43873,49.565441 122.90411,40.535686 135.52776,37.169262 c 13.41326,-3.576996 42.92868,-4.880975 57.45154,-2.538187 53.6249,8.650627 97.74679,48.916817 111.91031,102.130765 3.08817,11.6026 3.52349,15.79151 3.52349,33.90483 0,18.02132 -10.82108,16.13834 -13.83857,27.46524 -13.77896,51.72267 -51.06172,88.48041 -102.4816,101.03842 -12.86522,3.14201 -28.71067,10.66432 -40.64659,8.7814 z m 88.54202,-61.06829 c 2.51526,-2.51526 4.06996,-5.7551 4.63874,-9.66666 0.47053,-3.2359 0.67192,-35.78308 0.44753,-72.32708 l -0.40796,-66.443647 -4.29333,-4.404112 -4.4154,-3.375273 h -59.41487 -59.41486 l -3.89744,3.897437 C 107.99502,99.799857 107.99213,104 113.22429,104 c 6.43126,0 8.10905,1.24142 8.10905,6 0,4.72607 -1.6847,6 -7.9346,6 -3.25725,0 -3.81612,0.61392 -4.52272,4.96823 -0.96262,5.93188 0.044,7.16764 6.72285,8.25326 4.74051,0.77055 5.0678,1.12367 5.0678,5.46779 0,4.48815 -0.18475,4.65755 -5.50336,5.04607 -5.1963,0.37959 -5.54724,0.67245 -6.28991,5.24903 -0.98185,6.05042 0.65024,8.08804 6.89475,8.60785 4.63175,0.38556 4.89852,0.66192 4.89852,5.07444 0,4.43623 -0.26095,4.69959 -5.28447,5.33333 -4.78168,0.60324 -5.37449,1.10948 -6.23051,5.32062 -1.18479,5.82849 0.35236,7.75017 6.61646,8.27161 4.63175,0.38556 4.89852,0.66192 4.89852,5.07444 0,4.44156 -0.25644,4.69883 -5.31606,5.33333 -5.00987,0.62827 -5.36743,0.97386 -6.20783,6 -0.49046,2.93334 -0.49824,5.74324 -0.0173,6.24423 0.48097,0.501 3.27449,1.101 6.20782,1.33333 5.12055,0.40559 5.33333,0.60772 5.33333,5.0665 0,4.3355 -0.33317,4.6982 -5.01472,5.45916 -6.1884,1.00589 -5.97332,0.76765 -6.52726,7.23012 -0.4152,4.84394 -0.15133,5.36758 2.87575,5.7066 8.51624,0.9538 9.3329,1.49422 9.3329,6.17614 0,4.88446 -1.63421,6.11726 -8.10905,6.11726 -2.83971,0 -3.89095,0.64032 -3.89095,2.36998 0,3.26114 3.69632,8.25047 7.14266,9.64124 1.57153,0.63419 29.1535,1.19111 61.29323,1.23759 l 58.43591,0.0845 3.78322,-3.78322 z m -34.71544,-10.28957 c -3.36949,-4.05999 -6.14288,-4.6514 -11.43773,-2.43908 -3.44571,1.43971 -7.75208,1.94891 -13.42652,1.58759 C 169.37775,235.03998 162.12224,230.1873 157,220.086 c -6.31861,-12.4606 -4.3974,-23.86505 5.66484,-33.62684 5.00015,-4.85085 7.98083,-6.5616 13.63836,-7.8277 23.1082,-5.17139 42.39915,17.8971 33.52119,40.0853 -2.15485,5.38551 -2.14213,5.47234 1.33333,9.09995 4.15444,4.33629 4.32332,5.69967 1.07063,8.64331 -3.03989,2.75106 -4.75593,2.78409 -6.95543,0.13385 z m -18.93958,-10.76759 c 3.5717,-0.95717 3.8656,-3.99316 0.72272,-7.46601 -2.4586,-2.71671 -1.53574,-5.59268 2.6398,-8.22655 1.67593,-1.05714 2.95106,-0.65748 5.47885,1.71726 4.28396,4.02457 6.15863,2.68548 6.15863,-4.39915 0,-10.97297 -9.96264,-20.24692 -20.38414,-18.97504 -19.09713,2.33071 -23.31629,27.67521 -5.92165,35.57145 6.22732,2.82687 6.96135,2.94231 11.30579,1.77804 z m 17.37358,-62.72541 -3.5658,-3.5658 -8.07258,2.44419 c -7.12634,2.15768 -8.97104,2.24422 -15.73723,0.73833 -13.40804,-2.98411 -22.96831,-15.24229 -22.99053,-29.4785 -0.0107,-7.20878 6.34934,-18.54576 12.98565,-23.14526 11.2584,-7.80299 28.95313,-5.82215 37.77824,4.22908 8.01673,9.13056 10.06817,20.19267 5.74731,30.99157 -2.29492,5.73559 -2.43008,5.26894 4.09197,14.12783 0.87696,1.19117 0.49879,2.59516 -1.20665,4.47964 -3.25784,3.59988 -4.74459,3.46469 -9.03038,-0.82108 z m -14.83669,-11.8172 c 0.43259,-1.12731 -0.18624,-3.12455 -1.37519,-4.43832 -2.81316,-3.10851 -2.73016,-4.06839 0.66424,-7.68156 l 2.82596,-3.00809 3.71396,2.74585 c 4.8064,3.55353 6.63532,2.27149 6.62915,-4.64691 -0.0171,-19.13965 -25.84723,-25.76847 -34.84421,-8.94211 -5.10075,9.53951 -1.49942,20.80767 8.2091,25.68541 5.81767,2.92289 13.10863,3.06984 14.17699,0.28573 z"
         id="path24"
         sodipodi:nodetypes="sssssssssssssscccccssssssssssssssssssssssssssssccsssssssssssssssssssscsscssssssssscsssss"
         clip-path="url(#clipPath17)"
         sodipodi:insensitive="true" />
      <path
         style="display:inline;fill:#00aa44;stroke-width:1.33333"
         d="M 150,307.49626 C 108.05908,300.57029 73.462191,277.04373 51.632948,240.60476 30.696471,205.65607 27.267735,156.94547 43.023837,118.29877 52.4535,95.169607 71.812604,71.042335 91.870218,57.421469 103.43873,49.565441 122.90411,40.535686 135.52776,37.169262 c 13.41326,-3.576996 42.92868,-4.880975 57.45154,-2.538187 53.6249,8.650627 97.74679,48.916817 111.91031,102.130765 3.08817,11.6026 3.52349,15.79151 3.52349,33.90483 0,18.11659 -0.43616,22.31188 -3.53473,34 -4.05088,15.28031 -13.05838,34.84723 -21.44843,46.59225 -7.32025,10.24745 -26.37779,28.58157 -36.32064,34.94194 -28.61267,18.30329 -65.81946,26.46249 -97.1093,21.2954 z m 89.12143,-59.56779 c 1.91459,-1.506 4.13051,-4.956 4.92428,-7.66667 0.97743,-3.3378 1.31053,-27.01876 1.03209,-73.37206 l -0.41113,-68.443605 -4.35437,-3.889733 -4.35436,-3.889734 h -59.41487 -59.41486 l -3.89744,3.897437 c -2.14359,2.143589 -3.89743,4.843589 -3.89743,5.999995 0,1.36822 -1.19484,2.10257 -3.42099,2.10257 -5.88897,0 -8.579015,2.29945 -8.579015,7.33333 0,4.86251 2.680005,7.33334 7.954195,7.33334 3.51377,0 4.53739,2.53343 2.83391,7.01392 -0.99431,2.61524 -2.40828,3.57829 -5.72108,3.8966 -3.904961,0.37521 -4.448127,0.92047 -4.824666,4.84324 -0.52844,5.50529 1.635033,8.24624 6.508876,8.24624 4.62186,0 5.46829,1.23572 4.42377,6.45832 -0.7063,3.53149 -1.44989,4.1187 -5.66072,4.47028 -4.416698,0.36876 -4.885337,0.79768 -5.271926,4.82516 -0.52844,5.50529 1.635033,8.24624 6.508876,8.24624 4.62859,0 5.70133,1.57084 4.57495,6.6992 -0.71342,3.24817 -1.54778,3.96746 -4.6022,3.96746 -4.845295,0 -7.009478,2.74974 -6.481626,8.23532 0.308784,3.20896 1.150347,4.51738 3.090976,4.80568 7.14444,1.06139 8.66667,1.80062 8.66667,4.20868 0,4.75847 -1.56766,6.75032 -5.31273,6.75032 -4.787437,0 -6.974197,2.75992 -6.444916,8.13415 0.370733,3.76436 1.097713,4.49624 5.757646,5.79648 4.66851,1.30264 5.33333,1.97463 5.33333,5.39076 0,3.29008 -0.64609,4.03476 -4.11639,4.74452 -6.165353,1.26095 -7.216945,2.32452 -7.216945,7.2992 0,4.77736 2.689825,7.30156 7.780645,7.30156 1.58751,0 3.71719,1.85515 5.39589,4.70035 1.5253,2.5852 4.13457,5.24716 5.79837,5.91549 1.6638,0.66832 29.19418,1.25316 61.17862,1.29964 56.7069,0.0824 58.24012,0.0164 61.63457,-2.65368 z"
         id="path20"
         clip-path="url(#clipPath13)"
         sodipodi:insensitive="true" />
    </g>
  </g>
</svg>
