<?xml version="1.0" encoding="UTF-8" standalone="no"?>
<!-- Created with Inkscape (http://www.inkscape.org/) -->

<svg
   xmlns:dc="http://purl.org/dc/elements/1.1/"
   xmlns:cc="http://creativecommons.org/ns#"
   xmlns:rdf="http://www.w3.org/1999/02/22-rdf-syntax-ns#"
   xmlns:svg="http://www.w3.org/2000/svg"
   xmlns="http://www.w3.org/2000/svg"
   xmlns:sodipodi="http://sodipodi.sourceforge.net/DTD/sodipodi-0.dtd"
   xmlns:inkscape="http://www.inkscape.org/namespaces/inkscape"
   version="1.1"
   id="svg2"
   xml:space="preserve"
   width="448"
   height="464"
   viewBox="0 0 448 464"
   sodipodi:docname="s-logo.svg"
   inkscape:version="0.92.4 5da689c313, 2019-01-14"><metadata
     id="metadata8"><rdf:RDF><cc:Work
         rdf:about=""><dc:format>image/svg+xml</dc:format><dc:type
           rdf:resource="http://purl.org/dc/dcmitype/StillImage" /><dc:title /></cc:Work></rdf:RDF></metadata><defs
     id="defs6"><inkscape:path-effect
       effect="bspline"
       id="path-effect48"
       is_visible="true"
       weight="33.333333"
       steps="2"
       helper_size="0"
       apply_no_weight="true"
       apply_with_weight="true"
       only_selected="false" /><inkscape:path-effect
       effect="bspline"
       id="path-effect44"
       is_visible="true"
       weight="33.333333"
       steps="2"
       helper_size="0"
       apply_no_weight="true"
       apply_with_weight="true"
       only_selected="false" /><inkscape:path-effect
       effect="bspline"
       id="path-effect40"
       is_visible="true"
       weight="33.333333"
       steps="2"
       helper_size="0"
       apply_no_weight="true"
       apply_with_weight="true"
       only_selected="false" /><inkscape:path-effect
       effect="bspline"
       id="path-effect36"
       is_visible="true"
       weight="33.333333"
       steps="2"
       helper_size="0"
       apply_no_weight="true"
       apply_with_weight="true"
       only_selected="false" /></defs><sodipodi:namedview
     pagecolor="#000000"
     bordercolor="#666666"
     borderopacity="1"
     objecttolerance="10"
     gridtolerance="10"
     guidetolerance="10"
     inkscape:pageopacity="0"
     inkscape:pageshadow="2"
     inkscape:window-width="1856"
     inkscape:window-height="1043"
     id="namedview4"
     showgrid="false"
     inkscape:zoom="2.4445464"
     inkscape:cx="224"
     inkscape:cy="356.00111"
     inkscape:window-x="64"
     inkscape:window-y="0"
     inkscape:window-maximized="1"
     inkscape:current-layer="g10" /><g
     id="g10"
     inkscape:groupmode="layer"
     inkscape:label="ink_ext_XXXXXX"
     transform="matrix(1.3333333,0,0,-1.3333333,0,464)"><g
       id="g12"
       transform="scale(0.1)"><path
         d="M 1525,3470.04 C 1305,3453.74 1126.51,3403.98 915,3299.96 746,3216.85 604.211,3113.02 469.895,2974 356.223,2856.35 302.762,2787 227.828,2660 130.512,2495.05 69.7734,2340 28.0547,2150 7.63672,2057 5,2017 5,1800 5,1530 15.0742,1450 71.75,1270 112.68,1140 215.77,934.77 297.785,820 377.82,708 555.637,525.547 660,448.332 761.758,373.047 887,299.195 990,253.742 c 153,-67.523 260,-54.246 260,32.258 0,39.914 -13,49.855 -115,87.941 C 710.324,532.523 374.547,883 229.57,1319 c -21.281,64 -45.734,151.41 -54.55,195 -89.4223,442 43.527,919.04 358.957,1288 200.035,233.99 515.023,415.36 849.023,488.88 144.63,31.83 371,36.37 523,10.5 609,-103.67 1091.3,-539.47 1243.23,-1123.38 35.39,-136 39.78,-160.95 50.32,-286 28.74,-341 -101.48,-750.3 -330.25,-1038 -42.94,-54 -50.13,-69.871 -55.72,-123 -7.79,-74 2.94,-91 57.42,-91 36.43,0 43.11,5 101.44,76 134.64,163.887 236.2,343 297.12,524 114.77,341 116.82,754.62 5.42,1095 -53.02,162 -190.63,413.79 -267.98,490.32 -16.47,16.29 -47.04,52.68 -67.78,80.68 -70.78,95.56 -231.22,232.66 -381.22,325.79 -296.79,184.24 -653,266.39 -1033,238.25"
         style="fill:#ffffff;fill-opacity:1;fill-rule:nonzero;stroke:none"
         id="path14"
         inkscape:connector-curvature="0" /><path
         d="m 2202.06,2818 c -14.72,-56.36 -50.06,-72.86 -155.06,-72.4 -82,0.36 -101.78,4.33 -182,36.54 -123,49.4 -195,61.85 -318,54.99 C 1347,2825.97 1133.92,2725.92 992.996,2577 892.719,2471.03 854.93,2361 862.145,2196 c 4.023,-92 9.406,-121.1 31.437,-170 36.945,-82 90.75,-149.65 161.418,-202.94 103.84,-78.31 195,-118.18 405,-177.1 170,-47.7 221.37,-66.18 316,-113.67 100,-50.19 173.44,-107.76 214.67,-168.29 28.87,-42.39 30.8,-50 24.58,-97 -8.07,-61 -41.3,-160.48 -55.25,-165.45 -5.51,-1.95 -28.19,-34.55 -50.49,-72.55 C 1857.93,941.105 1765,825.266 1671,731.68 c -40,-39.825 -70.74,-74.942 -68,-77.68 7.17,-7.168 214.93,195 251.78,245 16.95,23 35.49,41 42.22,41 6.65,0 35.64,47.5 65,106.5 39.32,79 53.9,100.56 56.5,83.5 4.74,-31.12 -65.95,-170 -128.78,-253 -28.18,-37.223 -90.5,-107 -140.22,-157 -49.72,-50 -84.39,-90 -78,-90 6.33,0 58,45.824 115,102 57,56.176 103.5,98.406 103.5,94 0,-17.316 -61,-95.027 -79,-100.641 -17.56,-5.48 -32.33,-26.359 -35.63,-50.359 -0.76,-5.602 -6.87,-8.898 -13.87,-7.5 -7,1.398 -10.08,-1.461 -7,-6.5 3.02,-4.941 -17.5,-29.293 -45.5,-54 l -51,-45 38.5,0.5 c 21,0.273 44.64,5.273 52,11 9,7 15.88,6.5 20.65,-1.5 8.44,-14.145 152.07,130 222.21,223 55.81,74 124.84,192.027 134.51,230 5.86,23 8.74,25.05 16.13,11.5 4.91,-9 6.27,-21.05 3,-26.5 -3.6,-6 -2.4,-10 3,-10 14.91,0 21.62,40 11.23,67 -6.15,16 -5.73,30.67 1.27,44 5.75,10.96 13.21,50.5 16.5,87.5 4.71,53 9.44,67.5 22,67.5 13.47,0 15.92,-13.5 15.5,-85.5 -0.27,-47 -6.17,-103.51 -13.1,-125.5 -21.41,-68 -54.24,-134.805 -63.4,-129.035 -4.45,2.797 -11.11,-2.965 -15,-12.965 -3.77,-9.691 -18.08,-36 -31,-57 -12.92,-21 -25.33,-48.691 -26.87,-60 -4.8,-35 -15.96,-54.809 -34.13,-60.59 -9.71,-3.094 -17.64,-14.41 -18.5,-26.41 -1.43,-20 -0.57,-20.168 18,-3.5 13,11.668 19.5,13.168 19.5,4.5 0,-20.355 26.09,6 40.58,41 8.69,21 15.57,26.852 22.92,19.5 7.18,-7.184 0.89,-22.5 -19.95,-48.5 -45.66,-57 -51.85,-72.43 -10.83,-27 55.98,61.992 43.39,28 -17.41,-47 -29.99,-37 -46.7,-64.266 -37.31,-60.898 36.29,13.027 -254,-242.457 -331,-291.317 -9,-5.707 -17,-14.316 -17,-18.285 0,-4.117 11.5,-0.059 25.5,9 14,9.059 27.75,14.246 30.48,11.5 C 1744.83,289.109 1406,60 1384,60 c -3.2,0 -0.17,7 6.5,15 16.07,19.2852 6.5,18.8164 -33.5,-1.6367 C 1330,59.5586 1327.89,55.9844 1343.5,50.5 1359.87,44.75 1359,42.6406 1336,32.207 1314,22.2266 1298.82,0 1314,0 c 24.17,0 389,234.414 520,334.113 44,33.489 89.23,67.637 100.5,75.887 11.3,8.266 71,64.152 133,124.5 62,60.348 112.5,104.336 112.5,98 0,-6 -4.78,-14.371 -10,-17.5 -5.45,-3.273 -10,-11 -10,-17 0,-19.977 34.37,19 119.91,136 46.07,63 85,114.094 86.09,113 5.51,-5.508 -23.11,-77 -37.63,-94 -8.54,-10 -41.03,-58 -73.11,-108 C 2178.89,525.973 1944,295.426 1793,191.305 c -38,-26.207 -43.58,-45.985 -10,-35.438 30.15,9.469 110,72.668 242,191.543 109.59,98.692 188.95,185.59 270.87,296.59 42.8,58 84.13,95.824 84.13,77 0,-6 -4,-12.398 -10,-16 -5.71,-3.43 -10,-10.5 -10,-16.5 0,-6.461 5,-6.816 13,-0.922 24.07,17.742 42.2,8.422 40.02,-20.578 -1.12,-15 1.53,-24.828 5.98,-22.109 15.75,9.625 19.55,-19.891 5.78,-44.891 -7.72,-14 -13.78,-33.801 -13.78,-45 0,-17.332 3.26,-16 24.45,10 54.41,66.758 157.88,303 170.37,389 24.27,167 24.75,203.04 4.47,337 -11.2,74 -31.93,172.06 -46.3,219 -89.34,292 -290.64,503.86 -570.99,600.92 -31.76,10.99 -134,37.74 -226,59.12 -210,48.79 -290.3,84.12 -356.73,156.96 -56.51,61.95 -80.27,125 -80.27,213 0,109 30.41,162.26 120,210.15 31.9,17.05 246,6.62 319,-15.53 77,-23.37 202.24,-93.47 263,-147.21 82.15,-72.65 178,-290.41 178,-404.41 0,-18 4.55,-33 10,-33 6.48,0 10,123 10,350 0,335 -5.92,402.34 -27.94,318"
         style="fill:#ffffff;fill-opacity:1;fill-rule:nonzero;stroke:none"
         id="path16"
         inkscape:connector-curvature="0" /><path
         d="m 2196.61,1119 c -8.38,-42 -0.45,-50.3 8.6,-9 3.72,17 4.76,33.26 2.29,36 -2.53,2.81 -7.3,-9 -10.89,-27"
         style="fill:#ffffff;fill-opacity:1;fill-rule:nonzero;stroke:none"
         id="path18"
         inkscape:connector-curvature="0" /><path
         d="m 2181,1054 c 0.63,-12 2.84,-14.21 6,-6 2.69,7 2.23,15.77 -1,19 -3.16,3.16 -5.53,-3 -5,-13"
         style="fill:#ffffff;fill-opacity:1;fill-rule:nonzero;stroke:none"
         id="path20"
         inkscape:connector-curvature="0" /><path
         d="m 2120,951.5 c 0,-4.691 6.5,-8.5 14.5,-8.5 8,0 12.26,3.809 9.5,8.5 -3,5.102 -8.8,8.5 -14.5,8.5 -5.7,0 -9.5,-3.398 -9.5,-8.5"
         style="fill:#ffffff;fill-opacity:1;fill-rule:nonzero;stroke:none"
         id="path22"
         inkscape:connector-curvature="0" /><path
         d="m 2036,773.5 c -5.09,-14 -3.73,-14.578 9,-3.809 17,14.387 18.75,20.309 6,20.309 -4.91,0 -11.73,-7.5 -15,-16.5"
         style="fill:#ffffff;fill-opacity:1;fill-rule:nonzero;stroke:none"
         id="path24"
         inkscape:connector-curvature="0" /><path
         d="m 2370.55,594 c -17.53,-20 -29.33,-38.223 -26.55,-41 5.63,-5.629 65.02,57 65.42,69 0.46,13.602 -7.31,8 -38.87,-28"
         style="fill:#ffffff;fill-opacity:1;fill-rule:nonzero;stroke:none"
         id="path26"
         inkscape:connector-curvature="0" /><path
         d="m 1746.5,553.5 c -3.71,-3.715 -6.5,-11 -6.5,-17 0,-6.125 5,-5.5 12,1.5 7,7 9.71,14.082 6.5,17 -3.3,3 -8.1,2.398 -12,-1.5"
         style="fill:#ffffff;fill-opacity:1;fill-rule:nonzero;stroke:none"
         id="path28"
         inkscape:connector-curvature="0" /><path
         d="m 1645,260 c -3.6,-6 -2,-10 4,-10 6,0 12.4,4 16,10 3.6,6 2,10 -4,10 -6,0 -12.4,-4 -16,-10"
         style="fill:#ffffff;fill-opacity:1;fill-rule:nonzero;stroke:none"
         id="path30"
         inkscape:connector-curvature="0" /></g><path
       style="fill:#ffffff;stroke-width:0.75"
       id="path31"
       transform="scale(1,-1)"
       ry="1.3931218"
       rx="5.8511119"
       cy="-275.87796"
       cx="140.54608" /><path
       style="fill:#ffffff;stroke:none;stroke-width:0.75"
       d="m 132.93674,256.49164 c 0.21753,1.06776 0.3834,2.66429 0.69439,4.18791 0.31099,1.52362 0.76737,2.97575 1.40999,4.39559 0.64262,1.41985 1.4725,2.80989 2.93375,4.27103 1.46125,1.46113 3.55672,2.99642 5.73335,4.03281 2.17664,1.03639 4.43757,1.57569 6.43802,1.90734 2.00046,0.33164 3.7428,0.45609 5.96069,0.45608 2.21788,-2e-5 4.91455,-0.12448 6.28269,-0.0411 1.36815,0.0833 1.40962,0.37369 -0.81256,1.05587 -2.22219,0.68218 -6.73451,1.76347 -11.30648,1.76357 -4.57197,10e-5 -9.21584,-1.07794 -12.67883,-3.56605 -3.46298,-2.48811 -5.7433,-6.38538 -6.98761,-10.65718 -1.24431,-4.2718 -1.45161,-8.91518 -1.01576,-10.636 0.43584,-1.72082 1.51383,-0.51845 2.18747,0.35226 0.67364,0.87071 0.94337,1.41015 1.16089,2.47792 z"
       id="path46"
       inkscape:connector-curvature="0"
       inkscape:path-effect="#path-effect48"
       inkscape:original-d="m 132.98831,255.96206 c 0.16662,1.59727 0.33249,3.1938 0.49762,4.78957 0.45666,1.45139 0.91305,2.90352 1.36844,4.35416 0.8296,1.38906 1.65948,2.77911 2.48809,4.16754 2.09356,1.5341 4.18903,3.06939 6.28242,4.60296 2.25985,0.53962 4.52078,1.07892 6.78004,1.61726 1.74173,0.12511 3.48407,0.24956 5.22499,0.37321 2.69494,-0.12359 5.39161,-0.24806 8.08628,-0.37321 0.0422,0.29095 0.0837,0.5813 0.1244,0.87083 -4.48551,1.0758 -8.99783,2.15709 -13.49787,3.23451 -4.64424,-1.07755 -9.28811,-2.15559 -13.93329,-3.23451 -2.28043,-3.89799 -4.56075,-7.79526 -6.84225,-11.69401 -0.20664,-4.64474 -0.41393,-9.28812 -0.62202,-13.9333 1.0791,1.20353 2.15709,2.40591 3.23452,3.60773 0.27011,0.53948 0.53984,1.07892 0.80863,1.61726 z" /></g></svg>