<?xml version="1.0" encoding="UTF-8" standalone="no"?>
<svg
   viewBox="0 0 48 48"
   version="1.1"
   id="svg52"
   width="48"
   height="48"
   xmlns:xlink="http://www.w3.org/1999/xlink"
   xmlns="http://www.w3.org/2000/svg"
   xmlns:svg="http://www.w3.org/2000/svg">
  <defs
     id="defs56">
    <linearGradient
       xlink:href="#s"
       id="linearGradient3283"
       gradientUnits="userSpaceOnUse"
       x1="24"
       y1="24"
       x2="44"
       y2="44" />
  </defs>
  <linearGradient
     id="s"
     x1="24"
     x2="44"
     y1="24"
     y2="44"
     gradientUnits="userSpaceOnUse">
    <stop
       stop-color="#292c2f"
       offset="0"
       id="stop2" />
    <stop
       stop-opacity="0"
       offset="1"
       id="stop4" />
  </linearGradient>
  <linearGradient
     id="t"
     x1="189.34399"
     x2="-27.879999"
     y1="-34.772999"
     y2="126.119"
     gradientTransform="matrix(0.31711,0,0,0.3129,4.272,4.257)"
     gradientUnits="userSpaceOnUse"
     xlink:href="#t">
    <stop
       stop-color="#d40000"
       offset="0"
       id="stop7" />
    <stop
       stop-color="#d40000"
       offset="1"
       id="stop9" />
  </linearGradient>
  <linearGradient
     id="l">
    <stop
       stop-color="#fff"
       offset="0"
       id="stop12" />
    <stop
       stop-color="#dadada"
       offset="1"
       id="stop14" />
  </linearGradient>
  <linearGradient
     id="r"
     x1="49.298"
     x2="95.398003"
     y1="81.098"
     y2="56.09"
     gradientTransform="matrix(0.37868,0,0,0.26203,4.272,4.257)"
     gradientUnits="userSpaceOnUse"
     xlink:href="#l" />
  <linearGradient
     id="q"
     x1="61.021"
     x2="27.009001"
     y1="119.444"
     y2="77.337997"
     gradientTransform="matrix(0.35013,0,0,0.2834,4.272,4.257)"
     gradientUnits="userSpaceOnUse"
     xlink:href="#l" />
  <linearGradient
     id="p"
     x1="87.486"
     x2="39.143002"
     y1="37.283001"
     y2="58.523998"
     gradientTransform="matrix(0.42584,0,0,0.23301,4.272,4.257)"
     gradientUnits="userSpaceOnUse">
    <stop
       stop-color="#d0d0d0"
       offset="0"
       id="stop19" />
    <stop
       stop-color="#fff"
       offset="1"
       id="stop21" />
  </linearGradient>
  <linearGradient
     id="k">
    <stop
       stop-color="#ffdc68"
       offset="0"
       id="stop24" />
    <stop
       stop-color="#ce4300"
       offset="1"
       id="stop26" />
  </linearGradient>
  <linearGradient
     id="o"
     x1="39.132"
     x2="-14.568"
     y1="94.823997"
     y2="160.96001"
     gradientTransform="matrix(0.36573,0,0,0.2713,4.272,4.257)"
     gradientUnits="userSpaceOnUse"
     xlink:href="#k" />
  <linearGradient
     id="n"
     x1="24.438999"
     x2="12.066"
     y1="54.424"
     y2="58.196999"
     gradientTransform="matrix(0.67462,0,0,0.14709,4.272,4.257)"
     gradientUnits="userSpaceOnUse"
     xlink:href="#k" />
  <linearGradient
     id="m"
     x1="32.174"
     x2="-13.135"
     y1="91.75"
     y2="161.326"
     gradientTransform="matrix(0.47125,0,0,0.21056,4.272,4.257)"
     gradientUnits="userSpaceOnUse"
     xlink:href="#k" />
  <g
     id="g3281"
     transform="matrix(0.97994023,0,0,0.97157874,1.0812192,1.1136857)">
    <ellipse
       cx="24.268999"
       cy="24"
       rx="19.990999"
       ry="19.721001"
       fill="url(#t)"
       stroke="#a3a3a3"
       stroke-width="0.558"
       id="ellipse32"
       style="fill:#c83737;fill-opacity:1;stroke-width:0.558;stroke-miterlimit:4;stroke-dasharray:none" />
    <path
       d="M 39.486,19.486 22,12 13.225,12.484 18,17.244 9.535,28.424 11.112,30 13,33 12.533,39.941 a 20,20 0 0 0 0.797,0.547 l 23.703,-1.34 0.004,0.004 c 4.498,-3.688 7.133,-9.134 7.211,-14.904 z"
       fill="url(#s)"
       opacity="0.4"
       id="path34"
       style="fill:url(#linearGradient3283)" />
    <g
       fill-rule="evenodd"
       stroke-width="3.16"
       id="g50">
      <path
         d="m 11.262,43.28 c 0,0 6.247,-21.963 30.565,-19.17 0,0 -15.455,-9.218 -30.458,3.209 -4.432,10.312 -0.107,15.96 -0.107,15.96 z"
         fill="url(#r)"
         id="path36"
         style="fill:url(#r)" />
      <path
         d="m 13.122,40.502 c 0,0 6.518,-15.79 23.918,-16.067 -13.226,3.237 0.022,14.714 0.022,14.714 0,0 -10.462,9.523 -23.94,1.353 z"
         fill="url(#q)"
         id="path38"
         style="fill:url(#q)" />
      <path
         d="m 9.492,28.398 c 0,0 13.02,-14.388 32.463,-4.447 -0.348,-2.704 -2.648,-5.756 -6.77,-6.628 -0.912,-0.436 -7.595,-10.813 -21.96,-4.84 4.419,0.346 6.315,0.968 6.423,1.44 -7.643,-1.32 -9.908,9.606 -10.156,14.475 z"
         fill="url(#p)"
         id="path40"
         style="fill:url(#p)" />
      <path
         d="m 28.165,16.192 c 0,0 3.331,-1.198 3.765,2.367 -3.285,0.31 -3.765,-2.367 -3.765,-2.367 z"
         fill="#202020"
         id="path42" />
      <path
         d="m 11.175,43.35 c 0,0 5.694,-18.662 24.734,-19.385 0,0 -15.45,-2.832 -26.362,14.534 -0.06,2.457 1.628,4.852 1.628,4.852 z"
         fill="url(#o)"
         id="path44"
         style="fill:url(#o)" />
      <path
         d="m 13.24,12.485 c 0,0 4.75,0.278 6.445,1.45 0.708,-0.147 1.31,-0.634 1.411,-1.297 -0.607,-0.253 -6.167,-0.707 -7.855,-0.153 z"
         fill="url(#n)"
         id="path46"
         style="fill:url(#n)" />
      <path
         d="m 9.535,28.423 c 0,0 5.946,-7.175 17.948,-8.032 0,0 -16.34,0.742 -17.71,5.377 -0.382,1.115 -0.238,2.655 -0.238,2.655 z"
         fill="url(#m)"
         id="path48"
         style="fill:url(#m)" />
    </g>
  </g>
</svg>
