<?xml version="1.0" encoding="UTF-8" standalone="no"?>
<svg
   xmlns:dc="http://purl.org/dc/elements/1.1/"
   xmlns:cc="http://creativecommons.org/ns#"
   xmlns:rdf="http://www.w3.org/1999/02/22-rdf-syntax-ns#"
   xmlns:svg="http://www.w3.org/2000/svg"
   xmlns="http://www.w3.org/2000/svg"
   xmlns:sodipodi="http://sodipodi.sourceforge.net/DTD/sodipodi-0.dtd"
   xmlns:inkscape="http://www.inkscape.org/namespaces/inkscape"
   width="64"
   height="64"
   version="1.1"
   viewBox="0 0 16.933 16.933"
   id="svg19"
   sodipodi:docname="terminal-setting.svg"
   inkscape:version="1.0.2 (e86c870879, 2021-01-15)">
  <metadata
     id="metadata23">
    <rdf:RDF>
      <cc:Work
         rdf:about="">
        <dc:format>image/svg+xml</dc:format>
        <dc:type
           rdf:resource="http://purl.org/dc/dcmitype/StillImage" />
      </cc:Work>
    </rdf:RDF>
  </metadata>
  <sodipodi:namedview
     pagecolor="#ffffff"
     bordercolor="#666666"
     borderopacity="1"
     objecttolerance="10"
     gridtolerance="10"
     guidetolerance="10"
     inkscape:pageopacity="0"
     inkscape:pageshadow="2"
     inkscape:window-width="1868"
     inkscape:window-height="1019"
     id="namedview21"
     showgrid="false"
     inkscape:zoom="11.171875"
     inkscape:cx="32"
     inkscape:cy="32"
     inkscape:window-x="52"
     inkscape:window-y="33"
     inkscape:window-maximized="1"
     inkscape:current-layer="svg19" />
  <defs
     id="defs7">
    <linearGradient
       id="a"
       x1="43"
       x2="49"
       y1="44"
       y2="50"
       gradientTransform="scale(.26458)"
       gradientUnits="userSpaceOnUse">
      <stop
         offset="0"
         id="stop2" />
      <stop
         stop-opacity="0"
         offset="1"
         id="stop4" />
    </linearGradient>
  </defs>
  <g
     id="g15">
    <circle
       cx="8.4665"
       cy="8.4665"
       r="7.1436"
       fill="#72787e"
       style="paint-order:stroke fill markers"
       id="circle9" />
    <rect
       x="5.821"
       y="9.525"
       width="4.233"
       height=".529"
       ry=".265"
       fill="#fff"
       style="paint-order:stroke markers fill"
       id="rect11" />
    <path
       d="m4.502 4.725a0.264 0.264 0 0 0-0.262 0.13 0.264 0.264 0 0 0 0.097 0.362l2.842 1.64-2.842 1.641a0.264 0.264 0 0 0-0.097 0.362c0.074 0.127 0.235 0.17 0.362 0.097l3.207-1.852a0.26 0.26 0 0 0 0.127-0.225c0.00201-8e-3 0.00101-0.014999 0.00201-0.022 0-8e-3 0-0.014999-0.00201-0.023a0.26 0.26 0 0 0-0.127-0.224l-3.207-1.853a0.266 0.266 0 0 0-0.1-0.033z"
       fill="#fff"
       style="paint-order:stroke markers fill"
       id="path13" />
  </g>
  <path
     d="m15.582 9.0235-6.5629 6.5629a7.1437 7.1437 0 0 0 6.5629-6.5629z"
     fill="url(#a)"
     opacity=".25"
     stroke-width=".26458"
     style="paint-order:stroke fill markers"
     id="path17" />
  <path
     d="m 10.530377,10.929095 -0.482863,0.280882 0.438204,0.76438 a 1.0223655,1.0298971 0 0 0 -0.249967,0.435946 H 9.3595174 v 0.561762 h 0.8755076 a 1.0223655,1.0298971 0 0 0 0.250145,0.436863 l -0.437665,0.763463 0.482863,0.280881 0.43839,-0.764746 a 1.0223655,1.0298971 0 0 0 0.249597,0.03255 1.0223655,1.0298971 0 0 0 0.249968,-0.03219 l 0.438028,0.76438 0.482863,-0.280881 -0.438204,-0.76438 a 1.0223655,1.0298971 0 0 0 0.249969,-0.435946 h 0.876232 v -0.561755 h -0.875508 a 1.0223655,1.0298971 0 0 0 -0.250145,-0.436863 l 0.437666,-0.763463 -0.482863,-0.280881 -0.438391,0.764746 a 1.0223655,1.0298971 0 0 0 -0.249596,-0.03255 1.0223655,1.0298971 0 0 0 -0.249969,0.03219 z m 0.687987,1.106672 a 0.65059627,0.65538901 0 0 1 0.650597,0.655389 0.65059627,0.65538901 0 0 1 -0.650597,0.655389 0.65059627,0.65538901 0 0 1 -0.650596,-0.655389 0.65059627,0.65538901 0 0 1 0.650596,-0.655389 z"
     fill="#ffffff"
     id="path4"
     style="stroke-width:0.0932837" />
</svg>
